{"title":"Teri Meri Kahaani 2012 Hindi DvDrip 720p x264...Hon3y","uid":7561748,"size":1950276947,"categoryP":"video","categoryS":"hd___movies","magnet":"?xt=urn:btih:f765cdc0ce68d598f0ffdd5e8161a9b484540d04&amp;dn=Teri+Meri+Kahaani+2012+Hindi+DvDrip+720p+x264...Hon3y&amp;tr=udp%3A%2F%2Ftracker.openbittorrent.com%3A80&amp;tr=udp%3A%2F%2Fopen.demonii.com%3A1337&amp;tr=udp%3A%2F%2Ftracker.coppersurfer.tk%3A6969&amp;tr=udp%3A%2F%2Fexodus.desync.com%3A6969","seeders":0,"leechers":0,"uploader":"honey8ee","files":-1,"time":1345758378,"description":" &lt;a href=&quot;http://www.imdb.com/title/tt2354407/&quot; rel=&quot;nofollow&quot; target=&quot;_NEW&quot;&gt;http://www.imdb.com/title/tt2354407/&lt;/a&gt;\n\nPlot: Thrice upon a love story\n\nVideo\n\nFormat/Info : (MKV) Advanced Video Codec\nFormat profile : &lt;a class=&quot;__cf_email__&quot; href=&quot;/cdn-cgi/l/email-protection&quot; data-cfemail=&quot;a8e0c1cfc0e8e49c8699&quot;&gt;[email&amp;#160;protected]&lt;/a&gt;&lt;script data-cfhash='f9e31' type=&quot;text/javascript&quot;&gt;\n/* &lt;![CDATA[ */!function(){try{var t=&quot;currentScript&quot;in document?document.currentScript:function(){for(var t=document.getElementsByTagName(&quot;script&quot;),e=t.length;e--;)if(t[e].getAttribute(&quot;data-cfhash&quot;))return t[e]}();if(t&amp;&amp;t.previousSibling){var e,r,n,i,c=t.previousSibling,a=c.getAttribute(&quot;data-cfemail&quot;);if(a){for(e=&quot;&quot;,r=parseInt(a.substr(0,2),16),n=2;a.length-n;n+=2)i=parseInt(a.substr(n,2),16)^r,e+=String.fromCharCode(i);e=document.createTextNode(e),c.parentNode.replaceChild(e,c)}t.parentNode.removeChild(t);}}catch(u){}}()/* ]]&gt; */&lt;/script&gt;\nFormat settings, CABAC : Yes\nFormat settings, ReFrames : 4 frames\nMuxing mode : Header stripping\nCodec ID : V_MPEG4/ISO/AVC\nDuration : 1h 58mn\nBit rate : 2 000 Kbps\nWidth : 1 280 pixels\nHeight : 536 pixels\nDisplay aspect ratio : 2.35:1\nFrame rate : 23.976 fps\nStream size : 1.61 GiB (89%)\n\n\nAudio\n\nFormat : AC-3\nBit rate mode : Constant\nBit rate : 192 Kbps\nChannel(s) : 6 channels\nChannel positions : Front: L C R, Side: L R, LFE\nSampling rate : 48.0 KHz\nBit depth : 16 bits\nStream size : 162 MiB (11%)\n\n &lt;a href=&quot;\nhttp://www.shotpix.com/images/48805084245418741319.png&quot; rel=&quot;nofollow&quot; target=&quot;_NEW&quot;&gt;\nhttp://www.shotpix.com/images/48805084245418741319.png&lt;/a&gt;\n &lt;a href=&quot;\nhttp://www.shotpix.com/images/29294782693338220821.png&quot; rel=&quot;nofollow&quot; target=&quot;_NEW&quot;&gt;\nhttp://www.shotpix.com/images/29294782693338220821.png&lt;/a&gt;\n &lt;a href=&quot;\nhttp://www.shotpix.com/images/76012604924996160746.png&quot; rel=&quot;nofollow&quot; target=&quot;_NEW&quot;&gt;\nhttp://www.shotpix.com/images/76012604924996160746.png&lt;/a&gt;\n &lt;a href=&quot;\nhttp://www.shotpix.com/images/93013301402726789570.png&quot; rel=&quot;nofollow&quot; target=&quot;_NEW&quot;&gt;\nhttp://www.shotpix.com/images/93013301402726789570.png&lt;/a&gt;\n &lt;a href=&quot;\nhttp://www.shotpix.com/images/34591985910838595481.png&quot; rel=&quot;nofollow&quot; target=&quot;_NEW&quot;&gt;\nhttp://www.shotpix.com/images/34591985910838595481.png&lt;/a&gt;\n &lt;a href=&quot;\nhttp://www.shotpix.com/images/56941302922600593339.png&quot; rel=&quot;nofollow&quot; target=&quot;_NEW&quot;&gt;\nhttp://www.shotpix.com/images/56941302922600593339.png&lt;/a&gt;","torrent":{"xt":"urn:btih:f765cdc0ce68d598f0ffdd5e8161a9b484540d04","amp;dn":"Teri+Meri+Kahaani+2012+Hindi+DvDrip+720p+x264...Hon3y","amp;tr":["udp%3A%2F%2Ftracker.openbittorrent.com%3A80","udp%3A%2F%2Fopen.demonii.com%3A1337","udp%3A%2F%2Ftracker.coppersurfer.tk%3A6969","udp%3A%2F%2Fexodus.desync.com%3A6969"],"infoHash":"f765cdc0ce68d598f0ffdd5e8161a9b484540d04","infoHashBuffer":{"type":"Buffer","data":[247,101,205,192,206,104,213,152,240,255,221,94,129,97,169,180,132,84,13,4]},"announce":[],"urlList":[]}}